<mxfile host="app.diagrams.net" modified="2024-07-16T12:05:32.974Z" agent="Mozilla/5.0 (Windows NT 10.0; Win64; x64) AppleWebKit/537.36 (KHTML, like Gecko) Chrome/126.0.0.0 Safari/537.36" etag="q6kFnGjHHYyfLFWxD1B4" version="24.6.5" type="device">
  <diagram name="Trang-1" id="JPCEsCq_ayOKhu4yG33r">
    <mxGraphModel dx="1987" dy="1883" grid="1" gridSize="10" guides="1" tooltips="1" connect="1" arrows="1" fold="1" page="1" pageScale="1" pageWidth="827" pageHeight="1169" math="0" shadow="0">
      <root>
        <mxCell id="0" />
        <mxCell id="1" parent="0" />
        <mxCell id="RqshQKwjXCvwSvd2Mbds-5" style="edgeStyle=orthogonalEdgeStyle;rounded=0;orthogonalLoop=1;jettySize=auto;html=1;exitX=0;exitY=0.5;exitDx=0;exitDy=0;entryX=1;entryY=0.5;entryDx=0;entryDy=0;endArrow=none;endFill=0;startArrow=none;startFill=0;" edge="1" parent="1" source="RqshQKwjXCvwSvd2Mbds-1" target="RqshQKwjXCvwSvd2Mbds-2">
          <mxGeometry relative="1" as="geometry" />
        </mxCell>
        <mxCell id="RqshQKwjXCvwSvd2Mbds-6" style="edgeStyle=orthogonalEdgeStyle;rounded=0;orthogonalLoop=1;jettySize=auto;html=1;exitX=1;exitY=0.5;exitDx=0;exitDy=0;entryX=0;entryY=0.5;entryDx=0;entryDy=0;endArrow=none;endFill=0;startArrow=none;startFill=0;" edge="1" parent="1" source="RqshQKwjXCvwSvd2Mbds-1" target="RqshQKwjXCvwSvd2Mbds-3">
          <mxGeometry relative="1" as="geometry" />
        </mxCell>
        <mxCell id="RqshQKwjXCvwSvd2Mbds-44" style="edgeStyle=orthogonalEdgeStyle;rounded=0;orthogonalLoop=1;jettySize=auto;html=1;exitX=1;exitY=1;exitDx=0;exitDy=0;endArrow=none;endFill=0;" edge="1" parent="1" source="RqshQKwjXCvwSvd2Mbds-1" target="RqshQKwjXCvwSvd2Mbds-42">
          <mxGeometry relative="1" as="geometry">
            <Array as="points">
              <mxPoint x="400" y="80" />
            </Array>
          </mxGeometry>
        </mxCell>
        <mxCell id="RqshQKwjXCvwSvd2Mbds-97" style="edgeStyle=orthogonalEdgeStyle;rounded=0;orthogonalLoop=1;jettySize=auto;html=1;exitX=0.5;exitY=0;exitDx=0;exitDy=0;entryX=0.5;entryY=1;entryDx=0;entryDy=0;endArrow=none;endFill=0;" edge="1" parent="1" source="RqshQKwjXCvwSvd2Mbds-1" target="RqshQKwjXCvwSvd2Mbds-4">
          <mxGeometry relative="1" as="geometry" />
        </mxCell>
        <mxCell id="RqshQKwjXCvwSvd2Mbds-1" value="COMPANY" style="whiteSpace=wrap;html=1;align=center;fillColor=#ffff88;strokeColor=#36393d;" vertex="1" parent="1">
          <mxGeometry x="350" y="40" width="100" height="40" as="geometry" />
        </mxCell>
        <mxCell id="RqshQKwjXCvwSvd2Mbds-11" style="edgeStyle=orthogonalEdgeStyle;rounded=0;orthogonalLoop=1;jettySize=auto;html=1;exitX=0;exitY=0.5;exitDx=0;exitDy=0;entryX=1;entryY=0.5;entryDx=0;entryDy=0;endArrow=ERoneToMany;endFill=0;" edge="1" parent="1" source="RqshQKwjXCvwSvd2Mbds-2" target="RqshQKwjXCvwSvd2Mbds-8">
          <mxGeometry relative="1" as="geometry" />
        </mxCell>
        <mxCell id="RqshQKwjXCvwSvd2Mbds-2" value="Has" style="shape=rhombus;perimeter=rhombusPerimeter;whiteSpace=wrap;html=1;align=center;" vertex="1" parent="1">
          <mxGeometry x="190" y="30" width="120" height="60" as="geometry" />
        </mxCell>
        <mxCell id="RqshQKwjXCvwSvd2Mbds-12" style="edgeStyle=orthogonalEdgeStyle;rounded=0;orthogonalLoop=1;jettySize=auto;html=1;exitX=1;exitY=0.5;exitDx=0;exitDy=0;endArrow=ERoneToMany;endFill=0;" edge="1" parent="1" source="RqshQKwjXCvwSvd2Mbds-3" target="RqshQKwjXCvwSvd2Mbds-9">
          <mxGeometry relative="1" as="geometry" />
        </mxCell>
        <mxCell id="RqshQKwjXCvwSvd2Mbds-3" value="implement" style="shape=rhombus;perimeter=rhombusPerimeter;whiteSpace=wrap;html=1;align=center;" vertex="1" parent="1">
          <mxGeometry x="500" y="30" width="120" height="60" as="geometry" />
        </mxCell>
        <mxCell id="RqshQKwjXCvwSvd2Mbds-98" style="edgeStyle=orthogonalEdgeStyle;rounded=0;orthogonalLoop=1;jettySize=auto;html=1;exitX=0.5;exitY=0;exitDx=0;exitDy=0;entryX=0.5;entryY=1;entryDx=0;entryDy=0;endArrow=ERoneToMany;endFill=0;" edge="1" parent="1" source="RqshQKwjXCvwSvd2Mbds-4" target="RqshQKwjXCvwSvd2Mbds-13">
          <mxGeometry relative="1" as="geometry" />
        </mxCell>
        <mxCell id="RqshQKwjXCvwSvd2Mbds-4" value="record" style="shape=rhombus;perimeter=rhombusPerimeter;whiteSpace=wrap;html=1;align=center;" vertex="1" parent="1">
          <mxGeometry x="340" y="-50" width="120" height="60" as="geometry" />
        </mxCell>
        <mxCell id="RqshQKwjXCvwSvd2Mbds-29" style="edgeStyle=orthogonalEdgeStyle;rounded=0;orthogonalLoop=1;jettySize=auto;html=1;exitX=0;exitY=0.5;exitDx=0;exitDy=0;endArrow=none;endFill=0;curved=1;" edge="1" parent="1" source="RqshQKwjXCvwSvd2Mbds-8" target="RqshQKwjXCvwSvd2Mbds-20">
          <mxGeometry relative="1" as="geometry" />
        </mxCell>
        <mxCell id="RqshQKwjXCvwSvd2Mbds-39" style="edgeStyle=orthogonalEdgeStyle;rounded=0;orthogonalLoop=1;jettySize=auto;html=1;exitX=0.5;exitY=1;exitDx=0;exitDy=0;endArrow=none;endFill=0;startArrow=ERmandOne;startFill=0;" edge="1" parent="1" source="RqshQKwjXCvwSvd2Mbds-8" target="RqshQKwjXCvwSvd2Mbds-16">
          <mxGeometry relative="1" as="geometry" />
        </mxCell>
        <mxCell id="RqshQKwjXCvwSvd2Mbds-62" style="edgeStyle=orthogonalEdgeStyle;rounded=0;orthogonalLoop=1;jettySize=auto;html=1;exitX=0;exitY=0;exitDx=0;exitDy=0;entryX=1;entryY=0.5;entryDx=0;entryDy=0;endArrow=none;endFill=0;" edge="1" parent="1" source="RqshQKwjXCvwSvd2Mbds-8" target="RqshQKwjXCvwSvd2Mbds-18">
          <mxGeometry relative="1" as="geometry" />
        </mxCell>
        <mxCell id="RqshQKwjXCvwSvd2Mbds-63" style="edgeStyle=orthogonalEdgeStyle;rounded=0;orthogonalLoop=1;jettySize=auto;html=1;exitX=0;exitY=1;exitDx=0;exitDy=0;entryX=1;entryY=0.5;entryDx=0;entryDy=0;endArrow=none;endFill=0;" edge="1" parent="1" source="RqshQKwjXCvwSvd2Mbds-8" target="RqshQKwjXCvwSvd2Mbds-30">
          <mxGeometry relative="1" as="geometry" />
        </mxCell>
        <mxCell id="RqshQKwjXCvwSvd2Mbds-78" style="edgeStyle=orthogonalEdgeStyle;rounded=0;orthogonalLoop=1;jettySize=auto;html=1;exitX=1;exitY=1;exitDx=0;exitDy=0;entryX=0.5;entryY=0;entryDx=0;entryDy=0;curved=1;endArrow=none;endFill=0;startArrow=ERmandOne;startFill=0;" edge="1" parent="1" source="RqshQKwjXCvwSvd2Mbds-8" target="RqshQKwjXCvwSvd2Mbds-77">
          <mxGeometry relative="1" as="geometry" />
        </mxCell>
        <mxCell id="RqshQKwjXCvwSvd2Mbds-103" style="edgeStyle=orthogonalEdgeStyle;rounded=0;orthogonalLoop=1;jettySize=auto;html=1;exitX=1;exitY=0;exitDx=0;exitDy=0;entryX=0.5;entryY=1;entryDx=0;entryDy=0;endArrow=none;endFill=0;startArrow=ERoneToMany;startFill=0;" edge="1" parent="1" source="RqshQKwjXCvwSvd2Mbds-8" target="RqshQKwjXCvwSvd2Mbds-101">
          <mxGeometry relative="1" as="geometry" />
        </mxCell>
        <mxCell id="RqshQKwjXCvwSvd2Mbds-8" value="Employee" style="whiteSpace=wrap;html=1;align=center;fillColor=#6a00ff;fontColor=#ffffff;strokeColor=#3700CC;" vertex="1" parent="1">
          <mxGeometry x="50" y="40" width="100" height="40" as="geometry" />
        </mxCell>
        <mxCell id="RqshQKwjXCvwSvd2Mbds-90" style="edgeStyle=orthogonalEdgeStyle;rounded=0;orthogonalLoop=1;jettySize=auto;html=1;exitX=1;exitY=1;exitDx=0;exitDy=0;endArrow=none;endFill=0;" edge="1" parent="1" source="RqshQKwjXCvwSvd2Mbds-9" target="RqshQKwjXCvwSvd2Mbds-88">
          <mxGeometry relative="1" as="geometry" />
        </mxCell>
        <mxCell id="RqshQKwjXCvwSvd2Mbds-91" style="edgeStyle=orthogonalEdgeStyle;rounded=0;orthogonalLoop=1;jettySize=auto;html=1;exitX=1;exitY=0.5;exitDx=0;exitDy=0;entryX=1;entryY=0.5;entryDx=0;entryDy=0;endArrow=none;endFill=0;" edge="1" parent="1" source="RqshQKwjXCvwSvd2Mbds-9" target="RqshQKwjXCvwSvd2Mbds-89">
          <mxGeometry relative="1" as="geometry" />
        </mxCell>
        <mxCell id="RqshQKwjXCvwSvd2Mbds-93" style="edgeStyle=orthogonalEdgeStyle;rounded=0;orthogonalLoop=1;jettySize=auto;html=1;exitX=1;exitY=0;exitDx=0;exitDy=0;entryX=0;entryY=0.5;entryDx=0;entryDy=0;endArrow=none;endFill=0;" edge="1" parent="1" source="RqshQKwjXCvwSvd2Mbds-9" target="RqshQKwjXCvwSvd2Mbds-92">
          <mxGeometry relative="1" as="geometry" />
        </mxCell>
        <mxCell id="RqshQKwjXCvwSvd2Mbds-95" style="edgeStyle=orthogonalEdgeStyle;rounded=0;orthogonalLoop=1;jettySize=auto;html=1;exitX=0;exitY=1;exitDx=0;exitDy=0;endArrow=none;endFill=0;startArrow=ERoneToMany;startFill=0;" edge="1" parent="1" source="RqshQKwjXCvwSvd2Mbds-9" target="RqshQKwjXCvwSvd2Mbds-94">
          <mxGeometry relative="1" as="geometry" />
        </mxCell>
        <mxCell id="RqshQKwjXCvwSvd2Mbds-9" value="Projects" style="whiteSpace=wrap;html=1;align=center;fillColor=#6a00ff;fontColor=#ffffff;strokeColor=#3700CC;" vertex="1" parent="1">
          <mxGeometry x="660" y="40" width="100" height="40" as="geometry" />
        </mxCell>
        <mxCell id="RqshQKwjXCvwSvd2Mbds-108" style="edgeStyle=orthogonalEdgeStyle;rounded=0;orthogonalLoop=1;jettySize=auto;html=1;exitX=0.5;exitY=0;exitDx=0;exitDy=0;endArrow=none;endFill=0;" edge="1" parent="1" source="RqshQKwjXCvwSvd2Mbds-13" target="RqshQKwjXCvwSvd2Mbds-105">
          <mxGeometry relative="1" as="geometry">
            <Array as="points">
              <mxPoint x="430" y="-130" />
            </Array>
          </mxGeometry>
        </mxCell>
        <mxCell id="RqshQKwjXCvwSvd2Mbds-110" style="edgeStyle=orthogonalEdgeStyle;rounded=0;orthogonalLoop=1;jettySize=auto;html=1;exitX=1;exitY=1;exitDx=0;exitDy=0;entryX=0.5;entryY=1;entryDx=0;entryDy=0;endArrow=none;endFill=0;" edge="1" parent="1" source="RqshQKwjXCvwSvd2Mbds-13" target="RqshQKwjXCvwSvd2Mbds-107">
          <mxGeometry relative="1" as="geometry">
            <Array as="points">
              <mxPoint x="450" y="-100" />
              <mxPoint x="710" y="-100" />
            </Array>
          </mxGeometry>
        </mxCell>
        <mxCell id="RqshQKwjXCvwSvd2Mbds-13" value="relatives" style="shape=ext;margin=3;double=1;whiteSpace=wrap;html=1;align=center;fillColor=#6a00ff;fontColor=#ffffff;strokeColor=#3700CC;" vertex="1" parent="1">
          <mxGeometry x="350" y="-130" width="100" height="40" as="geometry" />
        </mxCell>
        <mxCell id="RqshQKwjXCvwSvd2Mbds-47" style="edgeStyle=orthogonalEdgeStyle;rounded=0;orthogonalLoop=1;jettySize=auto;html=1;exitX=0;exitY=0.5;exitDx=0;exitDy=0;endArrow=none;endFill=0;startArrow=ERmandOne;startFill=0;" edge="1" parent="1" source="RqshQKwjXCvwSvd2Mbds-15" target="RqshQKwjXCvwSvd2Mbds-46">
          <mxGeometry relative="1" as="geometry" />
        </mxCell>
        <mxCell id="RqshQKwjXCvwSvd2Mbds-15" value="Salaries" style="whiteSpace=wrap;html=1;align=center;fillColor=#6a00ff;fontColor=#ffffff;strokeColor=#3700CC;" vertex="1" parent="1">
          <mxGeometry x="50" y="200" width="100" height="40" as="geometry" />
        </mxCell>
        <mxCell id="RqshQKwjXCvwSvd2Mbds-40" style="edgeStyle=orthogonalEdgeStyle;rounded=0;orthogonalLoop=1;jettySize=auto;html=1;exitX=0.5;exitY=1;exitDx=0;exitDy=0;endArrow=ERmandOne;endFill=0;" edge="1" parent="1" source="RqshQKwjXCvwSvd2Mbds-16" target="RqshQKwjXCvwSvd2Mbds-15">
          <mxGeometry relative="1" as="geometry" />
        </mxCell>
        <mxCell id="RqshQKwjXCvwSvd2Mbds-16" value="receive" style="shape=rhombus;perimeter=rhombusPerimeter;whiteSpace=wrap;html=1;align=center;" vertex="1" parent="1">
          <mxGeometry x="40" y="110" width="120" height="60" as="geometry" />
        </mxCell>
        <mxCell id="RqshQKwjXCvwSvd2Mbds-66" style="edgeStyle=orthogonalEdgeStyle;rounded=0;orthogonalLoop=1;jettySize=auto;html=1;exitX=1;exitY=0.5;exitDx=0;exitDy=0;endArrow=none;endFill=0;" edge="1" parent="1" source="RqshQKwjXCvwSvd2Mbds-17" target="RqshQKwjXCvwSvd2Mbds-8">
          <mxGeometry relative="1" as="geometry" />
        </mxCell>
        <mxCell id="RqshQKwjXCvwSvd2Mbds-17" value="Middle name" style="ellipse;whiteSpace=wrap;html=1;align=center;fillColor=#e3c800;fontColor=#000000;strokeColor=#B09500;" vertex="1" parent="1">
          <mxGeometry x="-90" y="-190" width="100" height="40" as="geometry" />
        </mxCell>
        <mxCell id="RqshQKwjXCvwSvd2Mbds-18" value="address" style="ellipse;whiteSpace=wrap;html=1;align=center;fillColor=#e3c800;fontColor=#000000;strokeColor=#B09500;" vertex="1" parent="1">
          <mxGeometry x="-90" y="-30" width="100" height="40" as="geometry" />
        </mxCell>
        <mxCell id="RqshQKwjXCvwSvd2Mbds-20" value="Employee_code" style="ellipse;whiteSpace=wrap;html=1;align=center;fontStyle=4;fillColor=#e3c800;fontColor=#000000;strokeColor=#B09500;" vertex="1" parent="1">
          <mxGeometry x="-90" y="30" width="100" height="40" as="geometry" />
        </mxCell>
        <mxCell id="RqshQKwjXCvwSvd2Mbds-21" style="edgeStyle=orthogonalEdgeStyle;rounded=0;orthogonalLoop=1;jettySize=auto;html=1;exitX=0.5;exitY=1;exitDx=0;exitDy=0;" edge="1" parent="1" source="RqshQKwjXCvwSvd2Mbds-17" target="RqshQKwjXCvwSvd2Mbds-17">
          <mxGeometry relative="1" as="geometry" />
        </mxCell>
        <mxCell id="RqshQKwjXCvwSvd2Mbds-30" value="gender" style="ellipse;whiteSpace=wrap;html=1;align=center;fillColor=#e3c800;fontColor=#000000;strokeColor=#B09500;" vertex="1" parent="1">
          <mxGeometry x="-90" y="90" width="100" height="40" as="geometry" />
        </mxCell>
        <mxCell id="RqshQKwjXCvwSvd2Mbds-64" style="edgeStyle=orthogonalEdgeStyle;rounded=0;orthogonalLoop=1;jettySize=auto;html=1;exitX=1;exitY=0.5;exitDx=0;exitDy=0;entryX=0.25;entryY=0;entryDx=0;entryDy=0;endArrow=none;endFill=0;" edge="1" parent="1" source="RqshQKwjXCvwSvd2Mbds-31" target="RqshQKwjXCvwSvd2Mbds-8">
          <mxGeometry relative="1" as="geometry" />
        </mxCell>
        <mxCell id="RqshQKwjXCvwSvd2Mbds-31" value="Date of birth" style="ellipse;whiteSpace=wrap;html=1;align=center;fillColor=#e3c800;fontColor=#000000;strokeColor=#B09500;" vertex="1" parent="1">
          <mxGeometry x="-90" y="-80" width="100" height="40" as="geometry" />
        </mxCell>
        <mxCell id="RqshQKwjXCvwSvd2Mbds-36" value="First name" style="ellipse;whiteSpace=wrap;html=1;align=center;fillColor=#e3c800;fontColor=#000000;strokeColor=#B09500;" vertex="1" parent="1">
          <mxGeometry x="-90" y="-130" width="100" height="40" as="geometry" />
        </mxCell>
        <mxCell id="RqshQKwjXCvwSvd2Mbds-45" style="edgeStyle=orthogonalEdgeStyle;rounded=0;orthogonalLoop=1;jettySize=auto;html=1;exitX=0.5;exitY=1;exitDx=0;exitDy=0;endArrow=ERoneToMany;endFill=0;" edge="1" parent="1" source="RqshQKwjXCvwSvd2Mbds-42" target="RqshQKwjXCvwSvd2Mbds-43">
          <mxGeometry relative="1" as="geometry" />
        </mxCell>
        <mxCell id="RqshQKwjXCvwSvd2Mbds-42" value="has" style="shape=rhombus;perimeter=rhombusPerimeter;whiteSpace=wrap;html=1;align=center;" vertex="1" parent="1">
          <mxGeometry x="340" y="140" width="120" height="60" as="geometry" />
        </mxCell>
        <mxCell id="RqshQKwjXCvwSvd2Mbds-73" style="edgeStyle=orthogonalEdgeStyle;rounded=0;orthogonalLoop=1;jettySize=auto;html=1;exitX=0.5;exitY=1;exitDx=0;exitDy=0;endArrow=none;endFill=0;" edge="1" parent="1" source="RqshQKwjXCvwSvd2Mbds-43" target="RqshQKwjXCvwSvd2Mbds-72">
          <mxGeometry relative="1" as="geometry" />
        </mxCell>
        <mxCell id="RqshQKwjXCvwSvd2Mbds-76" style="edgeStyle=orthogonalEdgeStyle;rounded=0;orthogonalLoop=1;jettySize=auto;html=1;exitX=1;exitY=1;exitDx=0;exitDy=0;entryX=1;entryY=0.5;entryDx=0;entryDy=0;endArrow=none;endFill=0;" edge="1" parent="1" source="RqshQKwjXCvwSvd2Mbds-43" target="RqshQKwjXCvwSvd2Mbds-71">
          <mxGeometry relative="1" as="geometry" />
        </mxCell>
        <mxCell id="RqshQKwjXCvwSvd2Mbds-85" style="edgeStyle=orthogonalEdgeStyle;rounded=0;orthogonalLoop=1;jettySize=auto;html=1;exitX=0;exitY=1;exitDx=0;exitDy=0;endArrow=none;endFill=0;" edge="1" parent="1" source="RqshQKwjXCvwSvd2Mbds-43" target="RqshQKwjXCvwSvd2Mbds-84">
          <mxGeometry relative="1" as="geometry" />
        </mxCell>
        <mxCell id="RqshQKwjXCvwSvd2Mbds-96" style="edgeStyle=orthogonalEdgeStyle;rounded=0;orthogonalLoop=1;jettySize=auto;html=1;exitX=1;exitY=0;exitDx=0;exitDy=0;endArrow=none;endFill=0;" edge="1" parent="1" source="RqshQKwjXCvwSvd2Mbds-43" target="RqshQKwjXCvwSvd2Mbds-94">
          <mxGeometry relative="1" as="geometry" />
        </mxCell>
        <mxCell id="RqshQKwjXCvwSvd2Mbds-43" value="Department" style="whiteSpace=wrap;html=1;align=center;fillColor=#6a00ff;fontColor=#ffffff;strokeColor=#3700CC;" vertex="1" parent="1">
          <mxGeometry x="350" y="240" width="100" height="40" as="geometry" />
        </mxCell>
        <mxCell id="RqshQKwjXCvwSvd2Mbds-50" style="edgeStyle=orthogonalEdgeStyle;rounded=0;orthogonalLoop=1;jettySize=auto;html=1;exitX=1;exitY=0.5;exitDx=0;exitDy=0;endArrow=ERmandOne;endFill=0;" edge="1" parent="1" source="RqshQKwjXCvwSvd2Mbds-46" target="RqshQKwjXCvwSvd2Mbds-48">
          <mxGeometry relative="1" as="geometry" />
        </mxCell>
        <mxCell id="RqshQKwjXCvwSvd2Mbds-51" style="edgeStyle=orthogonalEdgeStyle;rounded=0;orthogonalLoop=1;jettySize=auto;html=1;exitX=0;exitY=0.5;exitDx=0;exitDy=0;endArrow=ERmandOne;endFill=0;" edge="1" parent="1" source="RqshQKwjXCvwSvd2Mbds-46" target="RqshQKwjXCvwSvd2Mbds-49">
          <mxGeometry relative="1" as="geometry" />
        </mxCell>
        <mxCell id="RqshQKwjXCvwSvd2Mbds-46" value="base on" style="shape=rhombus;perimeter=rhombusPerimeter;whiteSpace=wrap;html=1;align=center;" vertex="1" parent="1">
          <mxGeometry x="-90" y="250" width="120" height="60" as="geometry" />
        </mxCell>
        <mxCell id="RqshQKwjXCvwSvd2Mbds-56" style="edgeStyle=orthogonalEdgeStyle;rounded=0;orthogonalLoop=1;jettySize=auto;html=1;exitX=0.5;exitY=1;exitDx=0;exitDy=0;endArrow=none;endFill=0;" edge="1" parent="1" source="RqshQKwjXCvwSvd2Mbds-48" target="RqshQKwjXCvwSvd2Mbds-55">
          <mxGeometry relative="1" as="geometry" />
        </mxCell>
        <mxCell id="RqshQKwjXCvwSvd2Mbds-48" value="Full time" style="whiteSpace=wrap;html=1;align=center;fillColor=#6a00ff;fontColor=#ffffff;strokeColor=#3700CC;" vertex="1" parent="1">
          <mxGeometry x="30" y="330" width="100" height="40" as="geometry" />
        </mxCell>
        <mxCell id="RqshQKwjXCvwSvd2Mbds-53" style="edgeStyle=orthogonalEdgeStyle;rounded=0;orthogonalLoop=1;jettySize=auto;html=1;exitX=0.5;exitY=1;exitDx=0;exitDy=0;endArrow=none;endFill=0;" edge="1" parent="1" source="RqshQKwjXCvwSvd2Mbds-49" target="RqshQKwjXCvwSvd2Mbds-52">
          <mxGeometry relative="1" as="geometry" />
        </mxCell>
        <mxCell id="RqshQKwjXCvwSvd2Mbds-49" value="Part time" style="whiteSpace=wrap;html=1;align=center;fillColor=#6a00ff;fontColor=#ffffff;strokeColor=#3700CC;" vertex="1" parent="1">
          <mxGeometry x="-180" y="330" width="100" height="40" as="geometry" />
        </mxCell>
        <mxCell id="RqshQKwjXCvwSvd2Mbds-52" value="Rules pay rates" style="ellipse;whiteSpace=wrap;html=1;align=center;fillColor=#e3c800;fontColor=#000000;strokeColor=#B09500;" vertex="1" parent="1">
          <mxGeometry x="-180" y="410" width="100" height="40" as="geometry" />
        </mxCell>
        <mxCell id="RqshQKwjXCvwSvd2Mbds-55" value="Company policies" style="ellipse;whiteSpace=wrap;html=1;align=center;fillColor=#e3c800;fontColor=#000000;strokeColor=#B09500;" vertex="1" parent="1">
          <mxGeometry x="30" y="410" width="100" height="40" as="geometry" />
        </mxCell>
        <mxCell id="RqshQKwjXCvwSvd2Mbds-65" style="edgeStyle=orthogonalEdgeStyle;rounded=0;orthogonalLoop=1;jettySize=auto;html=1;exitX=1;exitY=0.5;exitDx=0;exitDy=0;entryX=0.4;entryY=0.25;entryDx=0;entryDy=0;entryPerimeter=0;endArrow=none;endFill=0;" edge="1" parent="1" source="RqshQKwjXCvwSvd2Mbds-36" target="RqshQKwjXCvwSvd2Mbds-8">
          <mxGeometry relative="1" as="geometry" />
        </mxCell>
        <mxCell id="RqshQKwjXCvwSvd2Mbds-68" style="edgeStyle=orthogonalEdgeStyle;rounded=0;orthogonalLoop=1;jettySize=auto;html=1;exitX=0;exitY=0.5;exitDx=0;exitDy=0;entryX=0.75;entryY=0;entryDx=0;entryDy=0;endArrow=none;endFill=0;" edge="1" parent="1" source="RqshQKwjXCvwSvd2Mbds-67" target="RqshQKwjXCvwSvd2Mbds-8">
          <mxGeometry relative="1" as="geometry" />
        </mxCell>
        <mxCell id="RqshQKwjXCvwSvd2Mbds-67" value="manager" style="shape=rhombus;perimeter=rhombusPerimeter;whiteSpace=wrap;html=1;align=center;" vertex="1" parent="1">
          <mxGeometry x="130" y="-240" width="120" height="60" as="geometry" />
        </mxCell>
        <mxCell id="RqshQKwjXCvwSvd2Mbds-71" value="Room name" style="ellipse;whiteSpace=wrap;html=1;align=center;fillColor=#e3c800;fontColor=#000000;strokeColor=#B09500;" vertex="1" parent="1">
          <mxGeometry x="350" y="370" width="100" height="40" as="geometry" />
        </mxCell>
        <mxCell id="RqshQKwjXCvwSvd2Mbds-72" value="Code" style="ellipse;whiteSpace=wrap;html=1;align=center;fontStyle=4;fillColor=#e3c800;fontColor=#000000;strokeColor=#B09500;" vertex="1" parent="1">
          <mxGeometry x="350" y="310" width="100" height="40" as="geometry" />
        </mxCell>
        <mxCell id="RqshQKwjXCvwSvd2Mbds-79" style="edgeStyle=orthogonalEdgeStyle;rounded=0;orthogonalLoop=1;jettySize=auto;html=1;exitX=1;exitY=1;exitDx=0;exitDy=0;entryX=0;entryY=0.5;entryDx=0;entryDy=0;endArrow=ERmandOne;endFill=0;" edge="1" parent="1" source="RqshQKwjXCvwSvd2Mbds-77" target="RqshQKwjXCvwSvd2Mbds-43">
          <mxGeometry relative="1" as="geometry" />
        </mxCell>
        <mxCell id="RqshQKwjXCvwSvd2Mbds-77" value="manage" style="shape=rhombus;perimeter=rhombusPerimeter;whiteSpace=wrap;html=1;align=center;" vertex="1" parent="1">
          <mxGeometry x="190" y="140" width="120" height="60" as="geometry" />
        </mxCell>
        <mxCell id="RqshQKwjXCvwSvd2Mbds-84" value="Locations" style="ellipse;shape=doubleEllipse;margin=3;whiteSpace=wrap;html=1;align=center;fillColor=#e3c800;fontColor=#000000;strokeColor=#B09500;" vertex="1" parent="1">
          <mxGeometry x="250" y="340" width="100" height="40" as="geometry" />
        </mxCell>
        <mxCell id="RqshQKwjXCvwSvd2Mbds-88" value="code" style="ellipse;whiteSpace=wrap;html=1;align=center;fillColor=#e3c800;fontColor=#000000;strokeColor=#B09500;" vertex="1" parent="1">
          <mxGeometry x="760" y="110" width="100" height="40" as="geometry" />
        </mxCell>
        <mxCell id="RqshQKwjXCvwSvd2Mbds-89" value="name" style="ellipse;whiteSpace=wrap;html=1;align=center;fillColor=#e3c800;fontColor=#000000;strokeColor=#B09500;" vertex="1" parent="1">
          <mxGeometry x="760" y="180" width="100" height="40" as="geometry" />
        </mxCell>
        <mxCell id="RqshQKwjXCvwSvd2Mbds-92" value="location" style="ellipse;whiteSpace=wrap;html=1;align=center;fillColor=#e3c800;fontColor=#000000;strokeColor=#B09500;" vertex="1" parent="1">
          <mxGeometry x="770" y="10" width="100" height="40" as="geometry" />
        </mxCell>
        <mxCell id="RqshQKwjXCvwSvd2Mbds-94" value="assign" style="shape=rhombus;perimeter=rhombusPerimeter;whiteSpace=wrap;html=1;align=center;" vertex="1" parent="1">
          <mxGeometry x="510" y="140" width="120" height="60" as="geometry" />
        </mxCell>
        <mxCell id="RqshQKwjXCvwSvd2Mbds-100" style="edgeStyle=orthogonalEdgeStyle;rounded=0;orthogonalLoop=1;jettySize=auto;html=1;exitX=0;exitY=1;exitDx=0;exitDy=0;entryX=0.896;entryY=-0.003;entryDx=0;entryDy=0;entryPerimeter=0;endArrow=none;endFill=0;" edge="1" parent="1" source="RqshQKwjXCvwSvd2Mbds-67" target="RqshQKwjXCvwSvd2Mbds-8">
          <mxGeometry relative="1" as="geometry" />
        </mxCell>
        <mxCell id="RqshQKwjXCvwSvd2Mbds-104" style="edgeStyle=orthogonalEdgeStyle;rounded=0;orthogonalLoop=1;jettySize=auto;html=1;exitX=1;exitY=0.5;exitDx=0;exitDy=0;entryX=0;entryY=0;entryDx=0;entryDy=0;endArrow=ERoneToMany;endFill=0;" edge="1" parent="1" source="RqshQKwjXCvwSvd2Mbds-101" target="RqshQKwjXCvwSvd2Mbds-9">
          <mxGeometry relative="1" as="geometry" />
        </mxCell>
        <mxCell id="RqshQKwjXCvwSvd2Mbds-101" value="participate" style="shape=rhombus;perimeter=rhombusPerimeter;whiteSpace=wrap;html=1;align=center;fillColor=#a20025;fontColor=#ffffff;strokeColor=#6F0000;" vertex="1" parent="1">
          <mxGeometry x="240" y="-200" width="120" height="60" as="geometry" />
        </mxCell>
        <mxCell id="RqshQKwjXCvwSvd2Mbds-105" value="names" style="ellipse;whiteSpace=wrap;html=1;align=center;fillColor=#e3c800;strokeColor=#B09500;" vertex="1" parent="1">
          <mxGeometry x="380" y="-260" width="100" height="40" as="geometry" />
        </mxCell>
        <mxCell id="RqshQKwjXCvwSvd2Mbds-109" style="edgeStyle=orthogonalEdgeStyle;rounded=0;orthogonalLoop=1;jettySize=auto;html=1;exitX=0;exitY=1;exitDx=0;exitDy=0;entryX=1;entryY=0.5;entryDx=0;entryDy=0;endArrow=none;endFill=0;" edge="1" parent="1" source="RqshQKwjXCvwSvd2Mbds-106" target="RqshQKwjXCvwSvd2Mbds-13">
          <mxGeometry relative="1" as="geometry">
            <Array as="points">
              <mxPoint x="570" y="-226" />
              <mxPoint x="570" y="-110" />
            </Array>
          </mxGeometry>
        </mxCell>
        <mxCell id="RqshQKwjXCvwSvd2Mbds-106" value="dates of birth" style="ellipse;whiteSpace=wrap;html=1;align=center;fillColor=#e3c800;strokeColor=#B09500;" vertex="1" parent="1">
          <mxGeometry x="520" y="-260" width="100" height="40" as="geometry" />
        </mxCell>
        <mxCell id="RqshQKwjXCvwSvd2Mbds-107" value="relationships of relatives" style="ellipse;whiteSpace=wrap;html=1;align=center;fillColor=#e3c800;strokeColor=#B09500;" vertex="1" parent="1">
          <mxGeometry x="660" y="-220" width="100" height="40" as="geometry" />
        </mxCell>
      </root>
    </mxGraphModel>
  </diagram>
</mxfile>
